<?xml version="1.0" encoding="utf-8"?>
<!-- Generator: Adobe Illustrator 16.0.0, SVG Export Plug-In . SVG Version: 6.00 Build 0)  -->
<!DOCTYPE svg PUBLIC "-//W3C//DTD SVG 1.1//EN" "http://www.w3.org/Graphics/SVG/1.1/DTD/svg11.dtd">
<svg version="1.1" xmlns="http://www.w3.org/2000/svg" xmlns:xlink="http://www.w3.org/1999/xlink" x="0px" y="0px"
	 width="1190.549px" height="841.891px" viewBox="0 0 1190.549 841.891" enable-background="new 0 0 1190.549 841.891"
	 xml:space="preserve">
<g id="Layer_1" display="none">
	<path display="inline" fill="#FE709E" d="M795.848,478.268c0.011-0.43,0.029-0.856,0.029-1.29
		c0-34.421-24.222-62.329-54.099-62.329c-11.957,0-22.999,4.484-31.957,12.054c-16.779-43.797-54.783-74.386-98.996-74.386
		c-10.209,0-20.078,1.668-29.441,4.713c-2.355-34.433-27.334-61.528-57.821-61.528c-11.042,0-21.362,3.553-30.149,9.719
		c-13.035-49.541-52.965-85.617-100.215-85.617c-46.04,0-85.111,34.244-99.147,81.82c-30.347,11.197-54.84,37.428-66.889,71.099
		c-10.285-6.475-22.081-10.156-34.628-10.156c-39.939,0-72.322,37.31-72.322,83.331c0,11.561,2.066,22.565,5.762,32.57H795.848z"/>
	<circle display="inline" opacity="0.4" fill="#FFFFFF" cx="438.724" cy="501.41" r="113.949"/>
	<circle display="inline" opacity="0.4" fill="#FFFFFF" cx="639.189" cy="615.358" r="33.585"/>
	
		<image display="inline" overflow="visible" width="63" height="38" xlink:href="../../../Zrzut ekranu 2017-09-03 o 21.48.30.png"  transform="matrix(1 0 0 1 -319.9998 356.8906)">
	</image>
</g>
<g id="Layer_2">
	
		<image overflow="visible" width="467" height="475" xlink:href="EF7AD728BFB380A3.png"  transform="matrix(1 0 0 1 184.7747 243.4453)">
	</image>
	<path fill="#F80339" d="M469.385,313.252c45.46,61.99,132.875,75.438,194.861,29.981l-39.063-53.277
		c-32.616,23.919-78.607,16.846-102.526-15.771c-23.918-32.614-16.84-78.604,15.771-102.52l-39.068-53.273
		C437.373,163.851,423.927,251.267,469.385,313.252z"/>
	<path fill="#F2E6DC" d="M397.82,521.283c45.463,0,68.926-26.729,86.055-46.244c15.08-17.177,22.432-24.77,38.627-24.77
		c16.196,0,23.546,7.593,38.621,24.77c17.133,19.515,40.6,46.244,86.058,46.244c45.456,0,68.921-26.729,86.051-46.249
		c15.072-17.172,22.42-24.765,38.609-24.765c16.192,0,23.54,7.593,38.613,24.765c17.132,19.52,40.595,46.249,86.054,46.249
		c45.457,0,68.92-26.729,86.051-46.249c15.072-17.172,22.42-24.765,38.609-24.765v-63.123c-45.457,0-68.92,26.73-86.052,46.247
		c-15.071,17.172-22.419,24.767-38.608,24.767c-16.193,0-23.539-7.595-38.614-24.767c-17.131-19.517-40.595-46.247-86.053-46.247
		s-68.921,26.73-86.052,46.247c-15.072,17.172-22.419,24.767-38.608,24.767c-16.194,0-23.542-7.595-38.618-24.767
		c-17.133-19.517-40.599-46.247-86.061-46.247c-45.461,0-68.932,26.73-86.061,46.247c-15.08,17.172-22.424,24.767-38.621,24.767
		V521.283z"/>
	<polygon fill="#271168" points="207.685,260.899 274.754,260.899 274.754,193.83 333.932,193.83 333.932,260.899 401.001,260.899 
		401.001,320.079 333.932,320.079 333.932,387.146 274.754,387.146 274.754,320.079 207.685,320.079 	"/>
	<path fill="#271168" d="M270.809,690.915c0,34.859,28.264,63.123,63.123,63.123c34.869,0,63.124-28.264,63.124-63.123
		s-28.255-63.124-63.124-63.124C299.073,627.791,270.809,656.056,270.809,690.915z"/>
	<path fill="#F80339" d="M862.34,387.147c0,18.884,15.307,34.19,34.19,34.19c18.885,0,34.192-15.307,34.192-34.19
		c0-18.88-15.308-34.191-34.192-34.191C877.647,352.956,862.34,368.267,862.34,387.147z"/>
	<polygon fill="#F2E6DC" points="1369.167,904.972 1428.346,904.972 1428.346,733.354 1256.729,733.354 1256.729,792.532 
		1369.167,792.532 	"/>
</g>
</svg>
