<?xml version="1.0" encoding="utf-8"?>
<!-- Generator: Adobe Illustrator 16.0.0, SVG Export Plug-In . SVG Version: 6.00 Build 0)  -->
<!DOCTYPE svg PUBLIC "-//W3C//DTD SVG 1.1//EN" "http://www.w3.org/Graphics/SVG/1.1/DTD/svg11.dtd">
<svg version="1.1" id="Layer_1" xmlns="http://www.w3.org/2000/svg" xmlns:xlink="http://www.w3.org/1999/xlink" x="0px" y="0px"
	 width="600px" height="447px" viewBox="0 0 600 447" enable-background="new 0 0 600 447" xml:space="preserve">
<rect stroke="#C494B6" stroke-miterlimit="10" width="600" height="447"/>
<rect x="690" y="46" fill="#231F20" width="107" height="107"/>
<g>
	<path stroke="#C494B6" stroke-miterlimit="10" d="M209.04,186.702c0,3.195-1.157,5.749-3.468,7.661
		c-2.312,1.913-5.275,2.869-8.89,2.869c-2.438,0-4.971-0.441-7.598-1.324c-2.627-0.882-4.949-2.122-6.967-3.72l3.405-5.485
		c3.909,2.943,7.692,4.414,11.349,4.414c1.597,0,2.858-0.368,3.783-1.104c0.924-0.735,1.387-1.67,1.387-2.806
		c0-1.681-2.229-3.194-6.683-4.54c-0.337-0.126-0.589-0.209-0.756-0.252c-6.978-1.892-10.466-5.044-10.466-9.458
		c0-3.11,1.208-5.6,3.625-7.471c2.417-1.87,5.558-2.806,9.426-2.806c3.866,0,7.523,1.135,10.97,3.405l-2.648,5.233
		c-2.733-1.807-5.696-2.711-8.89-2.711c-1.681,0-3.048,0.305-4.098,0.914c-1.051,0.61-1.576,1.524-1.576,2.743
		c0,1.094,0.546,1.892,1.64,2.396c0.756,0.378,1.817,0.736,3.184,1.072c1.366,0.337,2.574,0.673,3.625,1.009
		c1.05,0.337,2.07,0.715,3.058,1.135c0.987,0.421,2.049,1.009,3.184,1.766C207.905,181.153,209.04,183.508,209.04,186.702z"/>
	<path stroke="#C494B6" stroke-miterlimit="10" d="M248.256,183.045h-26.291c0.167,2.438,1.281,4.404,3.341,5.895
		c2.059,1.493,4.414,2.238,7.062,2.238c4.203,0,7.397-1.324,9.583-3.972l4.035,4.414c-3.616,3.742-8.323,5.611-14.123,5.611
		c-4.708,0-8.711-1.565-12.011-4.697c-3.3-3.13-4.949-7.334-4.949-12.609c0-5.274,1.681-9.467,5.044-12.579
		c3.362-3.11,7.323-4.666,11.884-4.666c4.561,0,8.438,1.377,11.633,4.13c3.194,2.753,4.792,6.547,4.792,11.38V183.045z
		 M221.965,177.497h19.229c0-2.815-0.882-4.98-2.648-6.494c-1.765-1.513-3.94-2.27-6.525-2.27s-4.908,0.788-6.967,2.364
		C222.994,172.673,221.965,174.807,221.965,177.497z"/>
	<path stroke="#C494B6" stroke-miterlimit="10" d="M273.601,169.805c-3.489,0-6.116,1.135-7.881,3.405
		c-1.765,2.27-2.648,5.318-2.648,9.142v14.375h-7.062v-33.542h7.062v6.747c1.135-2.102,2.68-3.825,4.634-5.17
		c1.955-1.345,4.024-2.038,6.21-2.081l0.063,7.125C273.854,169.805,273.728,169.805,273.601,169.805z"/>
	<path stroke="#C494B6" stroke-miterlimit="10" d="M281.481,156.501c-0.883-0.883-1.324-1.933-1.324-3.152
		c0-1.219,0.441-2.27,1.324-3.152s1.933-1.324,3.152-1.324c1.219,0,2.27,0.441,3.152,1.324s1.324,1.934,1.324,3.152
		c0,1.22-0.441,2.27-1.324,3.152s-1.934,1.324-3.152,1.324C283.414,157.826,282.364,157.384,281.481,156.501z M288.102,196.727
		h-7.062v-33.542h7.062V196.727z"/>
	<path stroke="#C494B6" stroke-miterlimit="10" d="M326.371,192.219c-3.363,3.341-7.566,5.012-12.609,5.012
		c-5.045,0-9.248-1.671-12.609-5.012c-3.364-3.342-5.044-7.429-5.044-12.263c0-4.833,1.681-8.921,5.044-12.263
		c3.361-3.342,7.564-5.013,12.609-5.013c5.043,0,9.246,1.671,12.609,5.013c3.362,3.341,5.044,7.43,5.044,12.263
		C331.415,184.79,329.733,188.877,326.371,192.219z M306.164,187.868c1.996,2.039,4.529,3.058,7.598,3.058
		c3.067,0,5.6-1.019,7.598-3.058c1.995-2.038,2.994-4.675,2.994-7.913c0-3.236-0.999-5.874-2.994-7.913
		c-1.998-2.038-4.53-3.058-7.598-3.058c-3.068,0-5.602,1.02-7.598,3.058c-1.997,2.039-2.994,4.676-2.994,7.913
		C303.17,183.193,304.167,185.83,306.164,187.868z"/>
	<path stroke="#C494B6" stroke-miterlimit="10" d="M362.875,181.343v-18.158h7.062v33.542h-7.062v-6.116
		c-1.135,2.06-2.701,3.679-4.695,4.855c-1.998,1.177-4.152,1.765-6.463,1.765c-3.783,0-6.842-1.156-9.174-3.468
		c-2.333-2.311-3.5-5.653-3.5-10.024v-20.554h7.062v18.41c0,6.179,2.562,9.269,7.691,9.269c2.438,0,4.561-0.809,6.367-2.428
		C361.971,186.818,362.875,184.454,362.875,181.343z"/>
	<path stroke="#C494B6" stroke-miterlimit="10" d="M404.046,186.702c0,3.195-1.156,5.749-3.467,7.661
		c-2.312,1.913-5.275,2.869-8.891,2.869c-2.438,0-4.971-0.441-7.597-1.324c-2.628-0.882-4.949-2.122-6.967-3.72l3.404-5.485
		c3.909,2.943,7.691,4.414,11.349,4.414c1.597,0,2.857-0.368,3.783-1.104c0.924-0.735,1.387-1.67,1.387-2.806
		c0-1.681-2.229-3.194-6.683-4.54c-0.337-0.126-0.59-0.209-0.757-0.252c-6.978-1.892-10.466-5.044-10.466-9.458
		c0-3.11,1.207-5.6,3.625-7.471c2.416-1.87,5.558-2.806,9.426-2.806c3.866,0,7.523,1.135,10.971,3.405l-2.648,5.233
		c-2.732-1.807-5.696-2.711-8.89-2.711c-1.682,0-3.048,0.305-4.099,0.914c-1.051,0.61-1.576,1.524-1.576,2.743
		c0,1.094,0.546,1.892,1.64,2.396c0.757,0.378,1.817,0.736,3.184,1.072c1.365,0.337,2.574,0.673,3.625,1.009
		c1.051,0.337,2.07,0.715,3.059,1.135c0.986,0.421,2.049,1.009,3.184,1.766C402.911,181.153,404.046,183.508,404.046,186.702z"/>
	<path stroke="#C494B6" stroke-miterlimit="10" d="M264.365,262.36c0,3.194-1.157,5.748-3.468,7.66
		c-2.312,1.913-5.275,2.868-8.89,2.868c-2.438,0-4.971-0.44-7.598-1.323c-2.627-0.883-4.949-2.122-6.967-3.72l3.405-5.485
		c3.909,2.942,7.692,4.413,11.349,4.413c1.597,0,2.858-0.367,3.783-1.104c0.924-0.734,1.387-1.671,1.387-2.806
		c0-1.681-2.229-3.193-6.683-4.539c-0.337-0.126-0.589-0.21-0.756-0.253c-6.978-1.891-10.466-5.043-10.466-9.457
		c0-3.109,1.208-5.601,3.625-7.471c2.417-1.87,5.558-2.806,9.426-2.806c3.866,0,7.523,1.135,10.97,3.404l-2.648,5.233
		c-2.733-1.807-5.696-2.712-8.89-2.712c-1.681,0-3.048,0.306-4.098,0.915c-1.051,0.609-1.576,1.523-1.576,2.742
		c0,1.094,0.546,1.892,1.64,2.396c0.756,0.379,1.817,0.736,3.184,1.072c1.366,0.337,2.574,0.673,3.625,1.009
		c1.05,0.337,2.07,0.715,3.058,1.135c0.987,0.421,2.049,1.009,3.184,1.766C263.23,256.812,264.365,259.166,264.365,262.36z"/>
	<path stroke="#C494B6" stroke-miterlimit="10" d="M279.433,254.227v18.158h-7.062v-46.719h7.062v19.293
		c1.009-2.06,2.532-3.678,4.571-4.855c2.039-1.176,4.234-1.765,6.589-1.765c3.783,0,6.841,1.156,9.173,3.468
		c2.333,2.312,3.5,5.653,3.5,10.024v20.554h-7.062v-18.41c0-6.179-2.564-9.269-7.692-9.269c-2.438,0-4.562,0.811-6.368,2.428
		C280.336,248.752,279.433,251.117,279.433,254.227z"/>
	<path stroke="#C494B6" stroke-miterlimit="10" d="M313.542,232.16c-0.883-0.883-1.324-1.934-1.324-3.152s0.441-2.27,1.324-3.152
		s1.933-1.324,3.152-1.324c1.219,0,2.27,0.441,3.152,1.324s1.324,1.934,1.324,3.152s-0.441,2.27-1.324,3.152
		s-1.934,1.324-3.152,1.324C315.475,233.484,314.425,233.043,313.542,232.16z M320.162,272.385h-7.062v-33.542h7.062V272.385z"/>
	<path stroke="#C494B6" stroke-miterlimit="10" d="M339.076,244.518v17.022c0,1.599,0.42,2.869,1.261,3.814
		c0.84,0.946,2.017,1.419,3.53,1.419s2.963-0.735,4.35-2.207l2.9,4.981c-2.48,2.229-5.223,3.341-8.227,3.341
		c-3.006,0-5.57-1.04-7.692-3.12c-2.123-2.081-3.185-4.887-3.185-8.417v-16.834h-4.224v-5.675h4.224v-10.528h7.062v10.528h8.826
		v5.675H339.076z"/>
</g>
</svg>
