<?xml version="1.0" encoding="utf-8"?>
<!-- Generator: Adobe Illustrator 16.0.0, SVG Export Plug-In . SVG Version: 6.00 Build 0)  -->
<!DOCTYPE svg PUBLIC "-//W3C//DTD SVG 1.1//EN" "http://www.w3.org/Graphics/SVG/1.1/DTD/svg11.dtd">
<svg version="1.1" id="Layer_1" xmlns="http://www.w3.org/2000/svg" xmlns:xlink="http://www.w3.org/1999/xlink" x="0px" y="0px"
	 width="1190.549px" height="841.891px" viewBox="0 0 1190.549 841.891" enable-background="new 0 0 1190.549 841.891"
	 xml:space="preserve">
<g id="Layer_1_1_" display="none">
	<path display="inline" fill="#BC70FE" d="M198.169,534.885c-0.012-0.506-0.035-1.006-0.035-1.516
		c0-40.464,28.475-73.271,63.596-73.271c14.057,0,27.038,5.271,37.567,14.171c19.726-51.486,64.4-87.445,116.375-87.445
		c12.002,0,23.603,1.961,34.609,5.541c2.77-40.479,32.135-72.33,67.972-72.33c12.981,0,25.112,4.177,35.442,11.427
		c15.323-58.239,62.264-100.648,117.81-100.648c54.12,0,100.053,40.256,116.553,96.184c35.675,13.162,64.468,43.999,78.631,83.581
		c12.092-7.612,25.958-11.94,40.707-11.94c46.951,0,85.021,43.86,85.021,97.962c0,13.59-2.431,26.527-6.773,38.287H198.169V534.885z
		"/>
</g>
<image overflow="visible" enable-background="new    " width="467" height="475" xlink:href="1221A4B7DC32A137.png"  transform="matrix(1 0 0 1 -836.2771 -237.5)">
</image>
<path fill="#F80339" d="M499.152,762.42c-115.521,0-209.505-93.98-209.505-209.493l99.277-0.008
	c0,60.78,49.445,110.228,110.228,110.228c60.777,0,110.22-49.445,110.22-110.219h99.278
	C708.65,668.439,614.665,762.42,499.152,762.42z"/>
<path fill="#F2E6DC" d="M752.476,686.004c-45.463,0-68.927-26.73-86.056-46.244c-15.08-17.178-22.432-24.77-38.627-24.77
	s-23.546,7.592-38.621,24.77c-17.133,19.514-40.6,46.244-86.058,46.244c-45.457,0-68.92-26.73-86.051-46.25
	c-15.072-17.172-22.42-24.764-38.609-24.764c-16.191,0-23.539,7.592-38.612,24.764c-17.132,19.52-40.595,46.25-86.055,46.25
	c-45.456,0-68.92-26.73-86.051-46.25c-15.072-17.172-22.42-24.764-38.608-24.764v-63.123c45.457,0,68.92,26.729,86.051,46.246
	c15.072,17.172,22.419,24.768,38.607,24.768c16.193,0,23.539-7.596,38.614-24.768c17.131-19.518,40.595-46.246,86.053-46.246
	s68.92,26.729,86.053,46.246c15.07,17.172,22.418,24.768,38.607,24.768c16.195,0,23.542-7.596,38.619-24.768
	c17.132-19.518,40.598-46.246,86.06-46.246c45.461,0,68.933,26.729,86.062,46.246c15.08,17.172,22.424,24.768,38.621,24.768
	L752.476,686.004L752.476,686.004z"/>
<polygon fill="none" stroke="#0A0A0A" stroke-width="8" stroke-miterlimit="10" points="255.148,546.295 188.08,546.295 
	188.08,479.225 128.901,479.225 128.901,546.295 61.833,546.295 61.833,605.475 128.901,605.475 128.901,672.541 188.08,672.541 
	188.08,605.475 255.148,605.475 "/>
<path fill="none" stroke="#0A0A0A" stroke-width="8" stroke-miterlimit="10" d="M701.403,735.665
	c0,34.859-28.264,63.123-63.123,63.123c-34.869,0-63.124-28.264-63.124-63.123s28.255-63.123,63.124-63.123
	C673.138,672.542,701.403,700.806,701.403,735.665z"/>
<path fill="#F80339" d="M279.966,618.937c0,18.885-15.307,34.189-34.189,34.189c-18.885,0-34.192-15.307-34.192-34.189
	c0-18.881,15.308-34.191,34.192-34.191C264.659,584.745,279.966,600.056,279.966,618.937z"/>
<polygon fill="#F2E6DC" points="-599.211,1194.328 -658.389,1194.328 -658.389,1022.711 -486.772,1022.711 -486.772,1081.889 
	-599.211,1081.889 "/>
<image overflow="visible" width="1023" height="675" xlink:href="../../../WORK/ilustracja lady G/b3.png"  transform="matrix(-0.1986 -0.0094 -0.0094 0.1986 434.8025 496.8799)">
</image>
<image overflow="visible" width="570" height="375" xlink:href="../../../WORK/ilustracja lady G/il_570xN.540904661_nnty.png"  transform="matrix(-0.4785 0.0268 0.0268 0.4785 805.6487 461.751)">
</image>
</svg>
